<svg width="1920" height="1080" viewBox="0 0 1920 1080" xmlns="http://www.w3.org/2000/svg"><rect width="1920" height="1080" fill="#ffffff"/><path d="M 0,1080 C 0,1080 0,216 0,216 C 101.12307692307695,205.81538461538463 202.2461538461539,195.63076923076923 302,182 C 401.7538461538461,168.36923076923077 500.13846153846146,151.29230769230767 602,161 C 703.8615384615385,170.70769230769233 809.2,207.2 934,239 C 1058.8,270.8 1203.0615384615385,297.9076923076923 1306,279 C 1408.9384615384615,260.0923076923077 1470.553846153846,195.1692307692308 1566,177 C 1661.446153846154,158.8307692307692 1790.7230769230769,187.4153846153846 1920,216 C 1920,216 1920,1080 1920,1080 Z" fill="#80d2dc" opacity="0.12"/><path d="M 0,1080 C 0,1080 0,432 0,432 C 125.18717948717949,469.12307692307695 250.37435897435898,506.24615384615385 362,495 C 473.625641025641,483.75384615384615 571.6897435897436,424.13846153846157 668,422 C 764.3102564102564,419.86153846153843 858.8666666666666,475.20000000000005 975,494 C 1091.1333333333334,512.8 1228.84358974359,495.06153846153836 1333,465 C 1437.15641025641,434.93846153846164 1507.7589743589742,392.55384615384617 1600,385 C 1692.2410256410258,377.44615384615383 1806.1205128205129,404.7230769230769 1920,432 C 1920,432 1920,1080 1920,1080 Z" fill="#80d2dc" opacity="0.24"/><path d="M 0,1080 C 0,1080 0,648 0,648 C 69.86666666666665,645.625641025641 139.7333333333333,643.251282051282 263,652 C 386.2666666666667,660.748717948718 562.9333333333333,680.6205128205129 681,654 C 799.0666666666667,627.3794871794871 858.5333333333333,554.2666666666667 958,570 C 1057.4666666666667,585.7333333333333 1196.9333333333334,690.3128205128204 1300,722 C 1403.0666666666666,753.6871794871796 1469.7333333333336,712.4820512820513 1567,688 C 1664.2666666666664,663.5179487179487 1792.1333333333332,655.7589743589743 1920,648 C 1920,648 1920,1080 1920,1080 Z" fill="#80d2dc" opacity="0.36"/><path d="M 0,1080 C 0,1080 0,864 0,864 C 127.37179487179486,889.2435897435897 254.74358974358972,914.4871794871794 346,900 C 437.2564102564103,885.5128205128206 492.3974358974359,831.2948717948718 607,838 C 721.6025641025641,844.7051282051282 895.6666666666667,912.3333333333334 1008,927 C 1120.3333333333333,941.6666666666666 1170.9358974358977,903.3717948717949 1264,903 C 1357.0641025641023,902.6282051282051 1492.5897435897434,940.1794871794872 1609,940 C 1725.4102564102566,939.8205128205128 1822.7051282051284,901.9102564102564 1920,864 C 1920,864 1920,1080 1920,1080 Z" fill="#80d2dc" opacity="0.48"/></svg>